<svg width="248" height="48" viewBox="0 0 248 48" fill="none" xmlns="http://www.w3.org/2000/svg">
<rect width="248" height="48" rx="4" fill="#0278FE"/>
<path d="M21.2912 31H26.5902C29.5881 31 31.0582 29.4723 31.0582 27.4332C31.0582 25.4517 29.652 24.2884 28.2585 24.218V24.0902C29.5369 23.7898 30.5469 22.8949 30.5469 21.3033C30.5469 19.3537 29.1406 17.9091 26.3026 17.9091H21.2912V31ZM23.6626 29.0185V25.1832H26.277C27.7408 25.1832 28.6484 26.0781 28.6484 27.2479C28.6484 28.2898 27.9325 29.0185 26.2131 29.0185H23.6626ZM23.6626 23.4766V19.8651H26.0597C27.4531 19.8651 28.1754 20.6001 28.1754 21.6101C28.1754 22.7607 27.2422 23.4766 26.0085 23.4766H23.6626ZM39.2768 26.8707C39.2768 28.3665 38.2093 29.108 37.1866 29.108C36.0744 29.108 35.3329 28.3217 35.3329 27.0753V21.1818H33.019V27.4332C33.019 29.7919 34.3613 31.1278 36.2917 31.1278C37.7619 31.1278 38.7974 30.3544 39.2449 29.255H39.3471V31H41.5907V21.1818H39.2768V26.8707ZM45.4084 34.6818C47.2109 34.6818 48.2528 33.755 48.8089 32.1889L52.7528 21.1946L50.2791 21.1818L48.0099 28.5966H47.9077L45.6449 21.1818H43.1903L46.7507 31.2045L46.5526 31.7351C46.1243 32.8537 45.4467 32.9304 44.4368 32.6364L43.8999 34.4389C44.2131 34.5668 44.7756 34.6818 45.4084 34.6818ZM63.7264 21.1818H61.7896V18.8295H59.4757V21.1818H58.0822V22.9716H59.4757V28.4304C59.4629 30.2777 60.8052 31.1854 62.5439 31.1342C63.2022 31.1151 63.6561 30.9872 63.9054 30.9041L63.5154 29.0952C63.3876 29.1271 63.1255 29.1847 62.8379 29.1847C62.2562 29.1847 61.7896 28.9801 61.7896 28.0469V22.9716H63.7264V21.1818ZM68.1864 25.2472C68.1864 23.8281 69.0685 23.0099 70.3086 23.0099C71.5231 23.0099 72.239 23.7834 72.239 25.1065V31H74.5529V24.7486C74.5529 22.3771 73.2106 21.054 71.1715 21.054C69.663 21.054 68.7042 21.7379 68.2504 22.8501H68.1353V17.9091H65.8725V31H68.1864V25.2472ZM76.9116 31H79.2255V21.1818H76.9116V31ZM78.0749 19.7884C78.81 19.7884 79.4109 19.2259 79.4109 18.5355C79.4109 17.8388 78.81 17.2763 78.0749 17.2763C77.3335 17.2763 76.7326 17.8388 76.7326 18.5355C76.7326 19.2259 77.3335 19.7884 78.0749 19.7884ZM89.3649 23.777C89.0453 22.1151 87.7157 21.054 85.4146 21.054C83.0495 21.054 81.4387 22.2173 81.4451 24.0327C81.4387 25.4645 82.3208 26.4105 84.2065 26.8004L85.8812 27.152C86.7825 27.3501 87.2044 27.7145 87.2044 28.2706C87.2044 28.9418 86.4757 29.4467 85.3762 29.4467C84.3152 29.4467 83.6248 28.9865 83.4267 28.1044L81.1703 28.3217C81.4579 30.1243 82.9728 31.1918 85.3826 31.1918C87.8372 31.1918 89.5694 29.9197 89.5758 28.0597C89.5694 26.6598 88.6681 25.8033 86.8145 25.4006L85.1397 25.0426C84.1426 24.8189 83.7463 24.4737 83.7527 23.9048C83.7463 23.2401 84.4814 22.7798 85.4466 22.7798C86.514 22.7798 87.0765 23.3615 87.2555 24.0071L89.3649 23.777ZM98.774 31.1982C100.314 31.1982 101.235 30.4759 101.657 29.6513H101.733V31H103.958V24.429C103.958 21.8338 101.842 21.054 99.9693 21.054C97.9047 21.054 96.3194 21.9744 95.8081 23.7642L97.9686 24.071C98.1987 23.3999 98.8507 22.8246 99.9821 22.8246C101.056 22.8246 101.644 23.3743 101.644 24.3395V24.3778C101.644 25.0426 100.947 25.0746 99.215 25.2599C97.3102 25.4645 95.4885 26.0334 95.4885 28.245C95.4885 30.1754 96.9011 31.1982 98.774 31.1982ZM99.3748 29.4979C98.4096 29.4979 97.7193 29.0568 97.7193 28.2067C97.7193 27.3182 98.4927 26.9474 99.5282 26.8004C100.135 26.7173 101.35 26.5639 101.65 26.321V27.478C101.65 28.571 100.768 29.4979 99.3748 29.4979ZM106.285 31H108.599V25.228C108.599 23.9815 109.538 23.0994 110.81 23.0994C111.2 23.0994 111.686 23.1697 111.884 23.2337V21.1051C111.673 21.0668 111.309 21.0412 111.053 21.0412C109.928 21.0412 108.988 21.6804 108.631 22.8182H108.528V21.1818H106.285V31ZM118.851 21.1818H116.915V18.8295H114.601V21.1818H113.207V22.9716H114.601V28.4304C114.588 30.2777 115.93 31.1854 117.669 31.1342C118.327 31.1151 118.781 30.9872 119.03 30.9041L118.64 29.0952C118.513 29.1271 118.251 29.1847 117.963 29.1847C117.381 29.1847 116.915 28.9801 116.915 28.0469V22.9716H118.851V21.1818ZM122.813 31H125.229L127.07 24.3651H127.204L129.045 31H131.455L134.235 21.1818H131.87L130.17 28.0469H130.074L128.31 21.1818H125.977L124.213 28.0852H124.123L122.397 21.1818H120.039L122.813 31ZM139.87 31.1918C142.746 31.1918 144.575 29.1655 144.575 26.1293C144.575 23.0866 142.746 21.054 139.87 21.054C136.994 21.054 135.165 23.0866 135.165 26.1293C135.165 29.1655 136.994 31.1918 139.87 31.1918ZM139.883 29.3381C138.291 29.3381 137.511 27.919 137.511 26.1229C137.511 24.3267 138.291 22.8885 139.883 22.8885C141.449 22.8885 142.229 24.3267 142.229 26.1229C142.229 27.919 141.449 29.3381 139.883 29.3381ZM146.539 31H148.852V25.228C148.852 23.9815 149.792 23.0994 151.064 23.0994C151.454 23.0994 151.94 23.1697 152.138 23.2337V21.1051C151.927 21.0668 151.563 21.0412 151.307 21.0412C150.182 21.0412 149.242 21.6804 148.884 22.8182H148.782V21.1818H146.539V31ZM153.675 31H155.989V27.7017L156.833 26.8004L159.837 31H162.605L158.578 25.4197L162.381 21.1818H159.677L156.149 25.1257H155.989V17.9091H153.675V31ZM171.213 31.1982C172.754 31.1982 173.674 30.4759 174.096 29.6513H174.173V31H176.397V24.429C176.397 21.8338 174.282 21.054 172.409 21.054C170.344 21.054 168.759 21.9744 168.248 23.7642L170.408 24.071C170.638 23.3999 171.29 22.8246 172.422 22.8246C173.495 22.8246 174.083 23.3743 174.083 24.3395V24.3778C174.083 25.0426 173.387 25.0746 171.654 25.2599C169.75 25.4645 167.928 26.0334 167.928 28.245C167.928 30.1754 169.341 31.1982 171.213 31.1982ZM171.814 29.4979C170.849 29.4979 170.159 29.0568 170.159 28.2067C170.159 27.3182 170.932 26.9474 171.968 26.8004C172.575 26.7173 173.789 26.5639 174.09 26.321V27.478C174.09 28.571 173.208 29.4979 171.814 29.4979ZM186.484 23.777C186.164 22.1151 184.835 21.054 182.534 21.054C180.169 21.054 178.558 22.2173 178.564 24.0327C178.558 25.4645 179.44 26.4105 181.326 26.8004L183 27.152C183.902 27.3501 184.324 27.7145 184.324 28.2706C184.324 28.9418 183.595 29.4467 182.495 29.4467C181.434 29.4467 180.744 28.9865 180.546 28.1044L178.289 28.3217C178.577 30.1243 180.092 31.1918 182.502 31.1918C184.956 31.1918 186.689 29.9197 186.695 28.0597C186.689 26.6598 185.787 25.8033 183.934 25.4006L182.259 25.0426C181.262 24.8189 180.865 24.4737 180.872 23.9048C180.865 23.2401 181.6 22.7798 182.566 22.7798C183.633 22.7798 184.196 23.3615 184.375 24.0071L186.484 23.777ZM203.928 17.9091H201.569V26.8324H201.454L195.292 17.9091H193.17V31H195.542V22.0831H195.65L201.819 31H203.928V17.9091ZM206.512 31H208.883V25.4389H214.323V23.451H208.883V19.897H214.898V17.9091H206.512V31ZM216.483 19.897H220.53V31H222.882V19.897H226.928V17.9091H216.483V19.897Z" fill="white"/>
</svg>
